<svg width="20" height="20" viewBox="0 0 20 20" fill="none" xmlns="http://www.w3.org/2000/svg">
<path fill-rule="evenodd" clip-rule="evenodd" d="M4.23119 11.2862L9.45 16.8664C9.9857 17.4392 9.9857 18.3679 9.45 18.9408C8.9143 19.5136 8.04576 19.5136 7.51006 18.9408L0.517741 11.4641C0.0810412 10.9972 0.000337087 10.2937 0.27563 9.73934C0.220715 9.30163 0.350559 8.84249 0.665163 8.5061L7.65749 1.02946C8.19318 0.456653 9.06172 0.456652 9.59742 1.02946C10.1331 1.60226 10.1331 2.53096 9.59742 3.10376L4.68854 8.35265H18.1998C19.0099 8.35265 19.6666 9.00934 19.6666 9.81941C19.6666 10.6295 19.0099 11.2862 18.1998 11.2862H4.23119Z" fill="#3B448F"/>
</svg>
