<svg width="20" height="20" viewBox="0 0 20 20" fill="none" xmlns="http://www.w3.org/2000/svg">
<path fill-rule="evenodd" clip-rule="evenodd" d="M15.7687 11.2862L10.5499 16.8664C10.0142 17.4392 10.0142 18.3679 10.5499 18.9408C11.0856 19.5136 11.9541 19.5136 12.4898 18.9408L19.4821 11.4641C19.9188 10.9972 19.9995 10.2937 19.7242 9.73934C19.7792 9.30163 19.6493 8.84249 19.3347 8.5061L12.3424 1.02946C11.8067 0.456653 10.9382 0.456652 10.4025 1.02946C9.86676 1.60226 9.86676 2.53096 10.4025 3.10376L15.3113 8.35265H1.80004C0.989971 8.35265 0.333284 9.00934 0.333284 9.81941C0.333284 10.6295 0.989973 11.2862 1.80004 11.2862H15.7687Z" fill="#3B448F"/>
</svg>
