<svg width="31" height="31" viewBox="0 0 31 31" fill="none" xmlns="http://www.w3.org/2000/svg"><path d="M12.9335 30.6816C5.91649 29.4364 0.550537 23.2934 0.550537 15.9051C0.550537 7.68668 7.23734 0.962524 15.4101 0.962524C23.5828 0.962524 30.2696 7.68668 30.2696 15.9051C30.2696 23.2934 24.9037 29.4364 17.8867 30.6816L17.0611 30.0175H13.759L12.9335 30.6816Z" fill="url(#paint0_linear)"></path><path d="M21.1888 19.9498L21.8492 15.8221H17.8866V12.9328C17.8866 11.777 18.2994 10.8689 20.1156 10.8689H22.0143V7.07148C20.9411 6.90638 19.7854 6.74127 18.7122 6.74127C15.3275 6.74127 12.9335 8.8051 12.9335 12.52V15.8221H9.21857V19.9498H12.9335V30.434C13.759 30.5991 14.5845 30.6817 15.41 30.6817C16.2356 30.6817 17.0611 30.5991 17.8866 30.434V19.9498H21.1888Z" fill="white"></path><defs><linearGradient id="paint0_linear" x1="15.4101" y1="29.8133" x2="15.4101" y2="0.962524" gradientUnits="userSpaceOnUse"><stop stop-color="#0062E0"></stop><stop offset="1" stop-color="#19AFFF"></stop></linearGradient></defs></svg>