<svg width="31" height="25" viewBox="0 0 31 25" fill="none" xmlns="http://www.w3.org/2000/svg"><path d="M0 6.81339C0 3.69307 2.39166 1.09358 5.50118 0.834162L9.18157 0.527122C13.3865 0.176317 17.6134 0.176316 21.8184 0.527121L25.4988 0.834162C28.6083 1.09358 31 3.69307 31 6.81339V18.1866C31 21.3069 28.6083 23.9064 25.4988 24.1658L21.8184 24.4729C17.6135 24.8237 13.3866 24.8237 9.18157 24.4729L5.50118 24.1658C2.39166 23.9064 0 21.3069 0 18.1866V6.81339Z" fill="#FF0077"></path><path fill-rule="evenodd" clip-rule="evenodd" d="M9.62502 11C11.0748 11 12.25 9.82475 12.25 8.375C12.25 6.92525 11.0748 5.75 9.62502 5.75C8.17527 5.75 7.00002 6.92525 7.00002 8.375C7.00002 9.82475 8.17527 11 9.62502 11ZM24.5428 17.3612L18.7985 9.50057C18.5164 9.11456 17.95 9.08748 17.6324 9.44481L12.25 15.5L10.5477 14.0814C10.2408 13.8257 9.7874 13.8553 9.51646 14.1489L6.60472 17.3032C6.17033 17.7738 6.48756 18.5373 7.12754 18.5614L15.4375 18.875L23.9656 18.5532C24.566 18.5305 24.8973 17.8463 24.5428 17.3612Z" fill="white"></path></svg>