<svg xmlns="http://www.w3.org/2000/svg" xmlns:xlink="http://www.w3.org/1999/xlink" width="28" height="20" viewBox="0 0 28 20">
    <defs>
        <rect id="a" width="28" height="20" rx="2"/>
    </defs>
    <g fill="none" fill-rule="evenodd">
        <mask id="b" fill="#fff">
            <use xlink:href="#a"/>
        </mask>
        <use fill="#FFF" xlink:href="#a"/>
        <path fill="#DD172C" d="M0 0h28v5.333H0zM0 14.667h28V20H0z" mask="url(#b)"/>
        <path fill="#FFD133" d="M0 5.333h28v9.333H0z" mask="url(#b)"/>
        <path fill="#FFEDB1" d="M7.333 9.333h1.334V10H7.333z" mask="url(#b)"/>
        <path stroke="#A41517" stroke-width=".667" d="M6.054 9.3l.167 2.007a1.138 1.138 0 0 0 1.112 1.026c.566 0 1.065-.461 1.112-1.026L8.613 9.3c.014-.174-.105-.3-.288-.3H6.341c-.176 0-.301.133-.287.3z" mask="url(#b)"/>
        <path fill="#A41517" d="M6 10h2.667v.667H8L7.333 12l-.666-1.333H6zM4 8h1.333v4.667H4zM9.333 8h1.333v4.667H9.333zM6 7.333c0-.368.306-.666.673-.666h1.32c.372 0 .674.296.674.666v.33A.33.33 0 0 1 8.34 8H6.327A.327.327 0 0 1 6 7.664v-.33z" mask="url(#b)"/>
    </g>
</svg>
